{"glyphs":{"0":{"ha":869,"x_min":0,"x_max":0,"o":"m 69 365 b 800 365 69 -121 800 -121 l 800 744 b 69 744 800 1232 69 1232 z m 274 365 l 274 744 b 597 744 274 961 597 961 l 597 365 b 274 365 597 149 274 149 z "},"1":{"ha":589,"x_min":0,"x_max":0,"o":"m 283 0 l 485 0 l 485 1014 b 388 1111 485 1068 440 1111 l 283 1111 l 0 828 l 142 685 l 283 828 z "},"2":{"ha":869,"x_min":0,"x_max":0,"o":"m 69 0 l 796 0 l 796 200 l 354 200 l 796 643 l 800 747 b 71 747 800 1232 71 1232 l 272 747 b 596 747 272 964 596 964 l 596 726 l 69 200 z "},"3":{"ha":731,"x_min":0,"x_max":0,"o":"m 69 0 l 342 0 b 635 199 474 4 586 85 b 661 328 653 239 661 283 b 635 456 661 372 653 417 b 569 556 619 493 597 526 b 635 656 597 585 619 618 b 661 783 653 696 661 739 b 636 910 661 828 653 871 b 357 1111 589 1021 482 1101 l 69 1111 l 69 910 l 333 910 b 460 783 403 910 460 853 b 343 656 460 717 406 656 l 218 656 l 218 456 l 335 456 b 460 328 404 456 460 397 b 333 200 460 257 403 200 l 69 200 z "},"4":{"ha":889,"x_min":0,"x_max":0,"o":"m 510 0 l 710 1 l 708 457 l 819 456 l 819 657 l 708 657 l 708 1015 b 643 1111 708 1068 679 1111 l 479 1111 l 69 657 l 69 456 l 510 456 z m 338 657 l 510 846 l 510 657 z "},"5":{"ha":796,"x_min":0,"x_max":0,"o":"m 413 0 b 725 304 578 0 713 139 b 700 454 729 358 719 408 b 397 657 650 572 533 657 l 274 657 l 274 908 l 703 908 l 703 1015 b 607 1111 703 1068 660 1111 l 71 1111 l 71 454 l 397 454 b 525 328 468 454 525 396 b 522 306 525 319 524 313 b 397 200 511 244 461 200 b 272 306 333 200 283 244 l 69 306 b 413 0 69 128 231 0 z "},"6":{"ha":797,"x_min":0,"x_max":0,"o":"m 399 0 b 728 329 581 0 728 147 b 411 656 728 507 588 650 l 624 1111 l 403 1111 l 103 472 l 99 463 b 69 329 81 421 69 376 b 154 108 69 244 103 167 b 399 0 215 42 301 0 z m 399 201 b 271 329 328 201 271 258 b 399 457 271 400 328 457 b 526 329 469 457 526 400 b 399 201 526 258 469 201 z "},"7":{"ha":882,"x_min":0,"x_max":0,"o":"m 165 0 l 388 0 l 813 908 l 813 1014 b 715 1111 813 1063 764 1111 l 69 1111 l 69 908 l 590 908 z "},"8":{"ha":794,"x_min":0,"x_max":0,"o":"m 397 0 b 725 328 578 0 725 147 b 635 556 725 417 690 497 b 725 783 690 614 725 694 b 397 1111 725 964 578 1111 b 69 783 217 1111 69 964 b 161 556 69 694 103 614 b 69 328 103 497 69 417 b 397 0 69 147 217 0 z m 388 656 b 269 782 322 661 269 715 b 397 910 269 853 326 910 b 524 782 468 910 524 853 b 407 656 524 715 472 661 z m 397 200 b 269 328 326 200 269 257 b 394 454 269 397 325 453 l 400 454 b 524 328 469 453 524 397 b 397 200 524 257 468 200 z "},"9":{"ha":794,"x_min":0,"x_max":0,"o":"m 172 0 l 394 0 l 692 640 l 697 650 b 725 783 715 690 725 736 b 640 1003 725 868 693 944 b 397 1111 581 1069 493 1111 b 69 783 217 1111 69 964 b 385 456 69 606 208 461 z m 397 656 b 271 782 326 656 271 713 b 397 910 271 853 326 910 b 524 782 468 910 524 853 b 397 656 524 713 468 656 z "},"A":{"ha":1299,"x_min":0,"x_max":0,"o":"m 69 0 l 344 0 l 451 229 l 847 229 l 954 0 l 1226 0 l 1229 1 l 738 1053 b 649 1110 722 1086 689 1110 b 560 1050 608 1110 574 1085 l 558 1049 z m 568 478 l 650 654 l 731 478 z "},"B":{"ha":928,"x_min":0,"x_max":0,"o":"m 104 0 l 489 0 b 858 329 693 0 858 147 l 858 335 b 763 556 858 419 822 497 b 858 778 822 614 858 692 l 858 782 b 489 1111 858 964 693 1111 l 104 1111 z m 347 664 l 347 894 l 485 894 b 615 785 556 894 611 846 l 615 774 b 489 664 611 714 557 665 z m 347 217 l 347 447 l 489 447 b 615 338 557 446 611 397 l 615 326 b 485 217 611 265 556 217 z "},"C":{"ha":1086,"x_min":0,"x_max":0,"o":"m 611 0 b 1017 164 775 0 919 57 l 890 290 b 775 300 861 319 814 329 b 629 260 736 281 678 260 b 340 569 456 260 340 410 b 619 850 340 725 465 850 b 775 811 678 850 726 831 b 890 821 814 782 861 792 l 1017 947 b 629 1111 919 1053 785 1111 b 69 532 311 1111 69 850 b 611 0 69 242 319 0 z "},"D":{"ha":986,"x_min":0,"x_max":0,"o":"m 104 0 l 365 0 b 917 551 675 0 917 251 b 365 1111 917 860 675 1111 l 104 1111 z m 365 261 l 365 840 b 656 551 529 840 656 715 b 365 261 656 396 529 261 z "},"E":{"ha":871,"x_min":0,"x_max":0,"o":"m 104 0 l 767 0 l 767 264 l 368 264 l 368 424 l 767 424 l 767 688 l 368 688 l 368 847 l 767 847 l 767 1014 b 669 1111 767 1068 722 1111 l 104 1111 z "},"F":{"ha":869,"x_min":0,"x_max":0,"o":"m 104 0 l 368 0 l 368 424 l 765 424 l 765 688 l 368 688 l 368 847 l 765 847 l 765 1014 b 668 1111 765 1068 722 1111 l 104 1111 z "},"G":{"ha":1165,"x_min":0,"x_max":0,"o":"m 625 0 b 803 29 688 0 747 10 b 829 39 813 32 821 35 l 832 39 l 832 40 l 854 49 b 872 58 860 51 867 54 b 908 78 885 64 897 71 l 925 88 l 958 110 b 1018 163 979 126 1000 144 l 1019 164 b 1096 353 1069 214 1096 282 l 1096 458 b 999 554 1096 511 1053 554 l 832 554 l 832 350 l 811 331 l 789 314 l 788 314 b 757 296 778 307 768 301 b 733 285 749 292 742 288 b 699 274 722 281 710 276 b 625 264 675 268 650 264 b 553 274 600 264 575 268 b 517 285 540 276 528 281 b 494 296 508 288 501 292 b 463 314 483 301 472 307 l 450 322 l 447 325 b 433 336 442 329 438 333 b 333 556 372 390 333 468 b 433 775 333 643 372 722 l 433 776 b 447 786 438 779 442 783 l 447 788 l 449 788 b 450 789 449 789 450 789 l 463 797 b 472 804 465 800 469 803 l 481 808 l 485 813 l 494 817 b 517 826 501 821 508 824 l 528 831 b 538 833 531 832 535 833 l 542 836 b 553 839 546 836 549 838 b 625 847 575 844 600 847 b 699 839 650 847 675 844 b 708 836 701 838 706 836 b 714 833 710 835 711 835 b 722 831 717 833 719 832 l 733 826 b 757 817 742 824 749 821 l 768 810 l 776 806 b 788 797 781 803 785 800 l 789 797 b 832 763 804 788 818 775 l 1018 949 b 958 1001 1000 968 979 985 b 925 1024 947 1010 936 1017 b 854 1063 903 1039 879 1051 b 829 1074 846 1067 838 1069 l 803 1082 b 625 1111 747 1101 688 1111 b 447 1082 563 1111 503 1101 l 421 1074 b 396 1063 413 1069 404 1067 b 325 1024 372 1051 349 1039 b 293 1001 314 1017 303 1010 b 232 949 271 985 251 968 b 69 556 132 849 69 710 b 232 163 69 403 132 264 b 293 110 251 144 271 126 b 325 88 303 103 314 94 b 343 76 331 83 338 81 l 378 58 l 396 49 b 421 39 404 46 413 42 b 447 29 429 35 439 32 b 625 0 503 10 563 0 z "},"H":{"ha":1169,"x_min":0,"x_max":0,"o":"m 104 0 l 369 0 l 369 424 l 800 424 l 800 0 l 1065 0 l 1065 1014 b 968 1111 1065 1068 1021 1111 l 800 1111 l 800 688 l 369 688 l 369 1014 b 272 1111 369 1068 326 1111 l 104 1111 z "},"I":{"ha":474,"x_min":0,"x_max":0,"o":"m 104 0 l 369 0 l 369 1014 b 272 1111 369 1068 325 1111 l 104 1111 z "},"J":{"ha":928,"x_min":0,"x_max":0,"o":"m 385 0 l 389 0 b 858 469 649 0 858 210 l 858 1015 b 761 1111 858 1068 815 1111 l 594 1111 l 594 469 b 401 265 594 361 508 271 b 389 264 397 264 393 264 b 276 297 347 264 308 276 b 157 283 240 321 186 314 l 35 161 b 385 0 125 71 249 11 z "},"K":{"ha":1146,"x_min":0,"x_max":0,"o":"m 104 0 l 369 0 l 369 301 l 671 0 l 1036 0 l 483 553 l 1042 1111 l 676 1111 l 369 804 l 369 1014 b 272 1111 369 1068 326 1111 l 104 1111 z "},"L":{"ha":825,"x_min":0,"x_max":0,"o":"m 104 0 l 756 0 l 756 265 l 369 265 l 369 1015 b 272 1111 369 1068 326 1111 l 104 1111 z "},"M":{"ha":1336,"x_min":0,"x_max":0,"o":"m 104 0 l 368 0 l 368 694 l 594 431 b 742 431 633 386 703 386 l 843 547 l 968 694 l 968 0 l 1232 0 l 1232 1111 l 996 1111 b 968 1099 985 1111 975 1107 l 668 750 l 368 1099 b 342 1111 361 1107 351 1111 l 104 1111 z "},"N":{"ha":1336,"x_min":0,"x_max":0,"o":"m 104 0 l 368 0 l 368 694 l 965 0 l 1232 0 l 1232 1014 b 1135 1111 1232 1068 1189 1111 l 968 1111 l 968 401 l 386 1078 b 313 1111 368 1099 340 1111 l 104 1111 z "},"O":{"ha":1250,"x_min":0,"x_max":0,"o":"m 625 1111 b 69 556 318 1111 69 863 b 625 0 69 249 318 0 b 1181 556 932 0 1181 249 b 625 1111 1181 863 932 1111 z m 625 265 b 335 556 464 265 335 394 b 625 846 335 715 464 846 b 915 556 785 846 915 715 b 625 265 915 394 785 265 z "},"P":{"ha":935,"x_min":0,"x_max":0,"o":"m 104 0 l 368 0 l 368 315 l 511 315 b 876 581 681 319 824 429 b 900 714 892 622 900 667 b 876 846 900 760 892 804 b 517 1111 824 996 683 1104 l 104 1111 l 104 846 l 499 846 l 501 846 l 506 846 b 635 713 576 844 635 785 b 506 581 635 643 574 581 l 501 581 l 200 581 b 104 483 147 581 104 538 z "},"Q":{"ha":1285,"x_min":0,"x_max":0,"o":"m 994 0 l 1181 188 l 1100 269 b 1179 556 1150 353 1179 451 b 625 1111 1179 863 931 1111 b 69 556 318 1111 69 863 b 625 1 69 250 318 1 b 913 82 731 1 829 31 z m 625 265 b 335 556 464 265 335 396 b 625 846 335 717 464 846 b 915 556 785 846 915 717 b 901 468 915 525 910 496 l 857 513 b 719 513 818 550 757 550 l 601 393 l 714 281 b 625 265 686 271 656 265 z "},"R":{"ha":1106,"x_min":0,"x_max":0,"o":"m 104 0 l 368 0 l 368 301 l 669 0 l 1036 0 l 692 344 b 924 707 829 408 924 546 b 514 1110 925 929 736 1110 l 104 1110 l 104 846 l 515 846 b 658 711 590 846 656 788 b 518 565 663 631 599 565 l 201 565 b 104 468 149 565 104 521 z "},"S":{"ha":815,"x_min":0,"x_max":0,"o":"m 69 -7 l 414 -7 b 746 358 596 -7 751 175 l 744 358 b 746 361 746 360 746 360 b 725 475 746 401 738 439 b 413 678 681 601 576 678 l 403 678 b 288 765 340 678 290 704 l 288 776 b 406 856 290 839 343 856 l 746 856 l 743 1010 b 646 1107 743 1063 699 1107 l 400 1107 b 69 776 218 1107 69 958 l 69 772 b 90 658 69 732 76 693 b 403 463 140 533 260 463 l 413 463 b 522 368 476 463 519 429 l 522 357 b 410 258 519 296 472 258 l 69 258 z "},"T":{"ha":1103,"x_min":0,"x_max":0,"o":"m 419 0 l 683 0 l 683 847 l 1033 847 l 1033 1014 b 936 1111 1033 1067 990 1111 l 69 1111 l 69 847 l 419 847 z "},"U":{"ha":1144,"x_min":0,"x_max":0,"o":"m 564 4 b 1040 472 826 4 1040 211 l 1040 1014 b 943 1111 1040 1068 997 1111 l 776 1111 l 776 472 b 564 267 776 356 681 263 b 367 476 453 271 367 365 l 367 1014 b 271 1111 367 1068 324 1111 l 104 1111 l 104 479 b 564 4 104 222 307 4 z "},"V":{"ha":1104,"x_min":0,"x_max":0,"o":"m 553 0 b 657 74 600 0 642 31 l 658 75 l 1035 1111 l 836 1111 b 750 1051 797 1111 764 1088 l 553 508 l 354 1051 b 269 1111 342 1088 307 1111 l 69 1111 l 447 74 b 553 0 463 31 504 0 z "},"W":{"ha":1701,"x_min":0,"x_max":0,"o":"m 1432 1111 b 1347 1053 1393 1111 1360 1088 l 1149 508 l 950 1053 b 868 1111 938 1088 906 1111 l 836 1111 b 750 1053 797 1113 764 1088 l 747 1042 b 746 1040 747 1042 746 1042 b 743 1033 746 1038 744 1036 l 719 965 l 553 508 l 354 1053 b 269 1111 342 1088 307 1111 l 69 1111 l 421 147 l 447 74 b 551 0 463 31 504 1 l 567 0 b 653 60 606 0 639 24 l 656 69 l 660 79 l 850 604 l 1049 60 b 1133 0 1061 24 1096 0 l 1150 0 b 1253 74 1197 1 1238 31 l 1281 147 l 1632 1111 z "},"X":{"ha":1240,"x_min":0,"x_max":0,"o":"m 69 0 l 393 0 l 621 324 l 847 0 l 1171 0 l 782 554 l 1169 1110 l 899 1110 b 819 1068 867 1110 838 1094 l 621 786 l 422 1069 b 342 1111 404 1096 374 1111 l 69 1111 l 458 556 z "},"Y":{"ha":1239,"x_min":0,"x_max":0,"o":"m 488 0 l 751 0 l 751 514 l 1169 1110 l 897 1110 b 818 1068 867 1110 836 1094 l 619 786 l 421 1069 b 342 1111 403 1096 374 1111 l 69 1111 l 488 515 z "},"Z":{"ha":1094,"x_min":0,"x_max":0,"o":"m 69 0 l 1025 0 l 1025 264 l 443 264 l 1025 847 l 1025 1014 b 929 1111 1025 1068 982 1111 l 69 1111 l 69 847 l 651 847 l 69 264 z "},"a":{"ha":1299,"x_min":0,"x_max":0,"o":"m 69 0 l 344 0 l 451 229 l 847 229 l 954 0 l 1226 0 l 1229 1 l 738 1053 b 649 1110 722 1086 689 1110 b 560 1050 608 1110 574 1085 l 558 1049 z m 568 478 l 650 654 l 731 478 z "},"b":{"ha":928,"x_min":0,"x_max":0,"o":"m 104 0 l 489 0 b 858 329 693 0 858 147 l 858 335 b 763 556 858 419 822 497 b 858 778 822 614 858 692 l 858 782 b 489 1111 858 964 693 1111 l 104 1111 z m 347 664 l 347 894 l 485 894 b 615 785 556 894 611 846 l 615 774 b 489 664 611 714 557 665 z m 347 217 l 347 447 l 489 447 b 615 338 557 446 611 397 l 615 326 b 485 217 611 265 556 217 z "},"c":{"ha":1086,"x_min":0,"x_max":0,"o":"m 611 0 b 1017 164 775 0 919 57 l 890 290 b 775 300 861 319 814 329 b 629 260 736 281 678 260 b 340 569 456 260 340 410 b 619 850 340 725 465 850 b 775 811 678 850 726 831 b 890 821 814 782 861 792 l 1017 947 b 629 1111 919 1053 785 1111 b 69 532 311 1111 69 850 b 611 0 69 242 319 0 z "},"d":{"ha":986,"x_min":0,"x_max":0,"o":"m 104 0 l 365 0 b 917 551 675 0 917 251 b 365 1111 917 860 675 1111 l 104 1111 z m 365 261 l 365 840 b 656 551 529 840 656 715 b 365 261 656 396 529 261 z "},"e":{"ha":871,"x_min":0,"x_max":0,"o":"m 104 0 l 767 0 l 767 264 l 368 264 l 368 424 l 767 424 l 767 688 l 368 688 l 368 847 l 767 847 l 767 1014 b 669 1111 767 1068 722 1111 l 104 1111 z "},"f":{"ha":869,"x_min":0,"x_max":0,"o":"m 104 0 l 368 0 l 368 424 l 765 424 l 765 688 l 368 688 l 368 847 l 765 847 l 765 1014 b 668 1111 765 1068 722 1111 l 104 1111 z "},"g":{"ha":1165,"x_min":0,"x_max":0,"o":"m 625 0 b 803 29 688 0 747 10 b 829 39 813 32 821 35 l 832 39 l 832 40 l 854 49 b 872 58 860 51 867 54 b 908 78 885 64 897 71 l 925 88 l 958 110 b 1018 163 979 126 1000 144 l 1019 164 b 1096 353 1069 214 1096 282 l 1096 458 b 999 554 1096 511 1053 554 l 832 554 l 832 350 l 811 331 l 789 314 l 788 314 b 757 296 778 307 768 301 b 733 285 749 292 742 288 b 699 274 722 281 710 276 b 625 264 675 268 650 264 b 553 274 600 264 575 268 b 517 285 540 276 528 281 b 494 296 508 288 501 292 b 463 314 483 301 472 307 l 450 322 l 447 325 b 433 336 442 329 438 333 b 333 556 372 390 333 468 b 433 775 333 643 372 722 l 433 776 b 447 786 438 779 442 783 l 447 788 l 449 788 b 450 789 449 789 450 789 l 463 797 b 472 804 465 800 469 803 l 481 808 l 485 813 l 494 817 b 517 826 501 821 508 824 l 528 831 b 538 833 531 832 535 833 l 542 836 b 553 839 546 836 549 838 b 625 847 575 844 600 847 b 699 839 650 847 675 844 b 708 836 701 838 706 836 b 714 833 710 835 711 835 b 722 831 717 833 719 832 l 733 826 b 757 817 742 824 749 821 l 768 810 l 776 806 b 788 797 781 803 785 800 l 789 797 b 832 763 804 788 818 775 l 1018 949 b 958 1001 1000 968 979 985 b 925 1024 947 1010 936 1017 b 854 1063 903 1039 879 1051 b 829 1074 846 1067 838 1069 l 803 1082 b 625 1111 747 1101 688 1111 b 447 1082 563 1111 503 1101 l 421 1074 b 396 1063 413 1069 404 1067 b 325 1024 372 1051 349 1039 b 293 1001 314 1017 303 1010 b 232 949 271 985 251 968 b 69 556 132 849 69 710 b 232 163 69 403 132 264 b 293 110 251 144 271 126 b 325 88 303 103 314 94 b 343 76 331 83 338 81 l 378 58 l 396 49 b 421 39 404 46 413 42 b 447 29 429 35 439 32 b 625 0 503 10 563 0 z "},"h":{"ha":1169,"x_min":0,"x_max":0,"o":"m 104 0 l 369 0 l 369 424 l 800 424 l 800 0 l 1065 0 l 1065 1014 b 968 1111 1065 1068 1021 1111 l 800 1111 l 800 688 l 369 688 l 369 1014 b 272 1111 369 1068 326 1111 l 104 1111 z "},"i":{"ha":474,"x_min":0,"x_max":0,"o":"m 104 0 l 369 0 l 369 1014 b 272 1111 369 1068 325 1111 l 104 1111 z "},"j":{"ha":928,"x_min":0,"x_max":0,"o":"m 385 0 l 389 0 b 858 469 649 0 858 210 l 858 1015 b 761 1111 858 1068 815 1111 l 594 1111 l 594 469 b 401 265 594 361 508 271 b 389 264 397 264 393 264 b 276 297 347 264 308 276 b 157 283 240 321 186 314 l 35 161 b 385 0 125 71 249 11 z "},"k":{"ha":1146,"x_min":0,"x_max":0,"o":"m 104 0 l 369 0 l 369 301 l 671 0 l 1036 0 l 483 553 l 1042 1111 l 676 1111 l 369 804 l 369 1014 b 272 1111 369 1068 326 1111 l 104 1111 z "},"l":{"ha":825,"x_min":0,"x_max":0,"o":"m 104 0 l 756 0 l 756 265 l 369 265 l 369 1015 b 272 1111 369 1068 326 1111 l 104 1111 z "},"m":{"ha":1336,"x_min":0,"x_max":0,"o":"m 104 0 l 368 0 l 368 694 l 594 431 b 742 431 633 386 703 386 l 843 547 l 968 694 l 968 0 l 1232 0 l 1232 1111 l 996 1111 b 968 1099 985 1111 975 1107 l 668 750 l 368 1099 b 342 1111 361 1107 351 1111 l 104 1111 z "},"n":{"ha":1336,"x_min":0,"x_max":0,"o":"m 104 0 l 368 0 l 368 694 l 965 0 l 1232 0 l 1232 1014 b 1135 1111 1232 1068 1189 1111 l 968 1111 l 968 401 l 386 1078 b 313 1111 368 1099 340 1111 l 104 1111 z "},"o":{"ha":1250,"x_min":0,"x_max":0,"o":"m 625 1111 b 69 556 318 1111 69 863 b 625 0 69 249 318 0 b 1181 556 932 0 1181 249 b 625 1111 1181 863 932 1111 z m 625 265 b 335 556 464 265 335 394 b 625 846 335 715 464 846 b 915 556 785 846 915 715 b 625 265 915 394 785 265 z "},"p":{"ha":935,"x_min":0,"x_max":0,"o":"m 104 0 l 368 0 l 368 315 l 511 315 b 876 581 681 319 824 429 b 900 714 892 622 900 667 b 876 846 900 760 892 804 b 517 1111 824 996 683 1104 l 104 1111 l 104 846 l 499 846 l 501 846 l 506 846 b 635 713 576 844 635 785 b 506 581 635 643 574 581 l 501 581 l 200 581 b 104 483 147 581 104 538 z "},"q":{"ha":1285,"x_min":0,"x_max":0,"o":"m 994 0 l 1181 188 l 1100 269 b 1179 556 1150 353 1179 451 b 625 1111 1179 863 931 1111 b 69 556 318 1111 69 863 b 625 1 69 250 318 1 b 913 82 731 1 829 31 z m 625 265 b 335 556 464 265 335 396 b 625 846 335 717 464 846 b 915 556 785 846 915 717 b 901 468 915 525 910 496 l 857 513 b 719 513 818 550 757 550 l 601 393 l 714 281 b 625 265 686 271 656 265 z "},"r":{"ha":1106,"x_min":0,"x_max":0,"o":"m 104 0 l 368 0 l 368 301 l 669 0 l 1036 0 l 692 344 b 924 707 829 408 924 546 b 514 1110 925 929 736 1110 l 104 1110 l 104 846 l 515 846 b 658 711 590 846 656 788 b 518 565 663 631 599 565 l 201 565 b 104 468 149 565 104 521 z "},"s":{"ha":815,"x_min":0,"x_max":0,"o":"m 69 -7 l 414 -7 b 746 358 596 -7 751 175 l 744 358 b 746 361 746 360 746 360 b 725 475 746 401 738 439 b 413 678 681 601 576 678 l 403 678 b 288 765 340 678 290 704 l 288 776 b 406 856 290 839 343 856 l 746 856 l 743 1010 b 646 1107 743 1063 699 1107 l 400 1107 b 69 776 218 1107 69 958 l 69 772 b 90 658 69 732 76 693 b 403 463 140 533 260 463 l 413 463 b 522 368 476 463 519 429 l 522 357 b 410 258 519 296 472 258 l 69 258 z "},"t":{"ha":1103,"x_min":0,"x_max":0,"o":"m 419 0 l 683 0 l 683 847 l 1033 847 l 1033 1014 b 936 1111 1033 1067 990 1111 l 69 1111 l 69 847 l 419 847 z "},"u":{"ha":1144,"x_min":0,"x_max":0,"o":"m 564 4 b 1040 472 826 4 1040 211 l 1040 1014 b 943 1111 1040 1068 997 1111 l 776 1111 l 776 472 b 564 267 776 356 681 263 b 367 476 453 271 367 365 l 367 1014 b 271 1111 367 1068 324 1111 l 104 1111 l 104 479 b 564 4 104 222 307 4 z "},"v":{"ha":1104,"x_min":0,"x_max":0,"o":"m 553 0 b 657 74 600 0 642 31 l 658 75 l 1035 1111 l 836 1111 b 750 1051 797 1111 764 1088 l 553 508 l 354 1051 b 269 1111 342 1088 307 1111 l 69 1111 l 447 74 b 553 0 463 31 504 0 z "},"w":{"ha":1701,"x_min":0,"x_max":0,"o":"m 1432 1111 b 1347 1053 1393 1111 1360 1088 l 1149 508 l 950 1053 b 868 1111 938 1088 906 1111 l 836 1111 b 750 1053 797 1113 764 1088 l 747 1042 b 746 1040 747 1042 746 1042 b 743 1033 746 1038 744 1036 l 719 965 l 553 508 l 354 1053 b 269 1111 342 1088 307 1111 l 69 1111 l 421 147 l 447 74 b 551 0 463 31 504 1 l 567 0 b 653 60 606 0 639 24 l 656 69 l 660 79 l 850 604 l 1049 60 b 1133 0 1061 24 1096 0 l 1150 0 b 1253 74 1197 1 1238 31 l 1281 147 l 1632 1111 z "},"x":{"ha":1240,"x_min":0,"x_max":0,"o":"m 69 0 l 393 0 l 621 324 l 847 0 l 1171 0 l 782 554 l 1169 1110 l 899 1110 b 819 1068 867 1110 838 1094 l 621 786 l 422 1069 b 342 1111 404 1096 374 1111 l 69 1111 l 458 556 z "},"y":{"ha":1239,"x_min":0,"x_max":0,"o":"m 488 0 l 751 0 l 751 514 l 1169 1110 l 897 1110 b 818 1068 867 1110 836 1094 l 619 786 l 421 1069 b 342 1111 403 1096 374 1111 l 69 1111 l 488 515 z "},"z":{"ha":1164,"x_min":0,"x_max":0,"o":"m 104 0 l 1060 0 l 1060 264 l 478 264 l 1060 847 l 1060 1014 b 964 1111 1060 1068 1017 1111 l 104 1111 l 104 847 l 686 847 l 104 264 z "},".":{"ha":403,"x_min":0,"x_max":0,"o":"m 201 0 b 333 132 275 0 333 60 b 201 264 333 206 275 264 b 69 132 129 264 69 206 b 201 0 69 60 129 0 z "},",":{"ha":401,"x_min":0,"x_max":0,"o":"m 332 132 b 322 83 332 115 326 97 l 318 72 l 203 -172 l 143 -144 l 213 0 l 200 0 b 69 132 126 0 69 60 b 200 263 69 206 126 263 b 332 132 272 263 332 206 z "},":":{"ha":401,"x_min":0,"x_max":0,"o":"m 201 586 b 332 718 274 586 332 644 b 201 849 332 790 274 849 b 69 718 128 849 69 790 b 201 586 69 644 128 586 z m 201 0 b 332 131 274 0 332 60 b 201 263 332 203 274 263 b 71 131 129 263 71 203 b 201 0 71 60 129 0 z "},";":{"ha":401,"x_min":0,"x_max":0,"o":"m 201 586 b 332 715 264 586 332 644 b 201 849 332 792 274 849 b 69 715 126 849 69 792 b 201 586 69 644 126 586 z m 203 -171 l 317 74 l 321 82 b 332 131 329 99 332 114 b 200 263 332 204 272 263 b 69 131 128 263 69 204 b 200 0 69 60 128 0 b 213 3 204 0 207 0 l 144 -143 z "},"…":{"ha":1253,"x_min":0,"x_max":0,"o":"m 199 0 b 331 132 272 0 331 58 b 199 264 331 206 272 264 b 69 132 128 264 69 206 b 199 0 69 58 128 0 z m 624 0 b 756 132 697 0 756 58 b 624 264 756 206 697 264 b 494 132 553 264 494 206 b 624 0 494 58 553 0 z m 1051 0 b 1183 132 1125 0 1183 58 b 1051 264 1183 206 1125 264 b 919 132 978 264 919 206 b 1051 0 919 58 978 0 z "},"!":{"ha":339,"x_min":0,"x_max":0,"o":"m 113 317 l 229 317 b 260 1040 240 560 250 800 b 164 1111 260 1079 217 1111 b 82 1050 119 1111 82 1083 b 113 317 92 806 103 563 z m 169 0 b 269 100 225 0 269 44 b 169 197 269 154 225 197 b 69 100 114 197 69 154 b 169 0 69 44 114 0 z "},"¡":{"ha":301,"x_min":0,"x_max":0,"o":"m 150 593 b 232 675 194 593 232 631 b 150 756 232 721 194 756 b 69 675 104 756 69 721 b 150 593 69 631 104 593 z m 156 -278 b 214 -219 189 -278 214 -251 b 193 496 208 18 201 257 l 108 496 b 89 -210 101 260 96 25 b 156 -278 89 -247 117 -278 z "},"?":{"ha":644,"x_min":0,"x_max":0,"o":"m 454 640 l 451 639 b 411 590 431 628 418 608 b 403 490 404 565 403 490 l 394 301 l 393 274 l 268 274 l 261 461 b 256 607 261 461 256 571 b 257 646 256 610 253 626 b 376 758 268 703 311 722 l 378 758 b 383 763 379 760 381 761 b 414 790 394 771 407 779 b 433 858 426 808 433 831 b 419 918 433 882 429 901 b 240 940 383 981 290 988 b 210 858 222 921 210 894 l 69 858 b 322 1111 69 1026 196 1111 l 324 1111 b 575 858 450 1110 575 1026 b 454 640 575 751 524 679 z m 238 93 b 332 188 238 144 279 188 b 425 93 383 188 425 144 b 332 0 425 42 383 0 b 238 93 279 0 238 42 z "},"¿":{"ha":646,"x_min":0,"x_max":0,"o":"m 315 649 b 408 743 367 649 408 692 b 315 838 408 794 367 838 b 221 743 264 838 221 794 b 315 649 221 692 264 649 z m 321 -278 l 322 -278 b 576 -25 450 -278 576 -193 l 436 -25 b 404 -106 436 -60 422 -87 b 224 -83 354 -154 261 -146 b 210 -25 215 -67 210 -47 b 231 44 210 3 218 25 b 261 72 239 56 250 64 b 264 74 261 72 264 72 b 267 75 264 74 265 75 l 268 75 b 389 189 333 113 376 131 b 389 228 392 208 389 225 b 385 375 389 264 385 375 l 376 561 l 253 561 l 251 536 l 242 344 b 233 244 242 344 240 271 b 192 196 226 225 215 208 b 190 194 190 196 190 194 b 69 -25 121 157 69 83 b 321 -278 69 -192 196 -276 z "},"·":{"ha":403,"x_min":0,"x_max":0,"o":"m 201 281 b 333 413 275 281 333 339 b 201 544 333 486 275 544 b 69 413 128 544 69 486 b 201 281 69 339 128 281 z "},"•":{"ha":558,"x_min":0,"x_max":0,"o":"m 279 176 b 489 386 396 176 489 269 b 279 596 489 503 396 596 b 69 386 163 596 69 503 b 279 176 69 269 163 176 z "},"*":{"ha":543,"x_min":0,"x_max":0,"o":"m 244 676 l 283 676 b 300 694 290 676 300 685 l 300 847 l 446 764 l 467 793 b 460 818 469 801 467 811 l 326 896 l 474 979 l 460 1010 b 433 1017 451 1017 440 1021 l 300 940 l 300 1113 l 264 1113 b 244 1094 253 1113 244 1104 l 244 940 l 96 1024 l 81 996 b 83 971 72 989 78 976 l 219 896 l 69 808 l 88 779 b 114 771 92 771 101 767 l 244 847 z "},"#":{"ha":988,"x_min":0,"x_max":0,"o":"m 157 0 l 264 0 l 332 282 l 557 282 l 490 0 l 599 0 l 667 282 l 833 282 l 853 376 l 689 376 l 743 608 l 899 608 l 918 703 l 767 703 l 833 985 l 765 985 b 717 947 742 985 722 969 l 657 703 l 431 703 l 500 985 l 431 985 b 382 947 407 985 388 969 l 324 703 l 197 703 b 149 663 174 703 153 686 l 138 608 l 301 608 l 246 376 l 131 376 b 82 338 107 376 88 361 l 69 282 l 224 282 z m 354 376 l 408 608 l 635 608 l 581 376 z "},"/":{"ha":675,"x_min":0,"x_max":0,"o":"m 260 -167 l 149 -137 b 74 -8 92 -121 58 -65 l 418 1274 l 528 1244 b 603 1115 583 1229 617 1172 z "},"\\":{"ha":676,"x_min":0,"x_max":0,"o":"m 417 -165 l 528 -135 b 603 -6 585 -121 618 -62 l 258 1278 l 149 1249 b 74 1119 92 1233 58 1176 z "},"(":{"ha":533,"x_min":0,"x_max":0,"o":"m 288 -224 l 372 -168 b 415 0 429 -136 444 -61 b 415 1111 246 351 246 760 b 372 1283 444 1172 429 1249 l 288 1336 b 288 -224 -3 857 -3 256 z "},")":{"ha":532,"x_min":0,"x_max":0,"o":"m 244 -222 b 244 1332 536 254 536 853 b 158 1282 218 1314 185 1297 b 119 1111 104 1246 89 1171 b 119 0 289 757 289 350 b 158 -171 89 -60 104 -133 b 244 -222 185 -189 218 -204 z "},"{":{"ha":1140,"x_min":0,"x_max":0,"o":"m 721 -299 l 978 -299 b 1071 -233 1028 -299 1071 -269 l 1071 -32 l 728 -32 b 608 50 650 -32 608 -3 l 608 383 b 472 558 608 461 561 515 b 608 728 561 596 608 651 l 608 1063 b 728 1143 608 1117 650 1143 l 1071 1143 l 1071 1346 b 978 1410 1071 1382 1028 1410 l 721 1410 b 449 1335 607 1410 518 1385 b 343 1147 379 1289 343 1225 l 343 775 b 226 692 343 717 304 692 l 69 692 l 69 422 l 226 422 b 343 338 304 422 343 393 l 343 -37 b 449 -225 343 -112 379 -174 b 721 -299 518 -274 607 -299 z "},"}":{"ha":1142,"x_min":0,"x_max":0,"o":"m 163 -299 l 421 -299 b 692 -225 532 -299 624 -275 b 796 -39 761 -176 796 -114 l 796 335 b 915 421 796 393 836 421 l 1072 421 l 1072 692 l 915 692 b 796 776 836 692 796 721 l 796 1150 b 692 1338 796 1225 761 1289 b 421 1410 624 1386 532 1410 l 163 1410 b 69 1346 111 1410 69 1382 l 69 1146 l 411 1146 b 529 1063 492 1146 529 1117 l 529 731 b 669 554 529 654 576 597 b 529 382 576 515 529 460 l 529 51 b 411 -32 529 -6 492 -32 l 69 -32 l 69 -233 b 163 -299 69 -268 111 -299 z "},"[":{"ha":782,"x_min":0,"x_max":0,"o":"m 69 -299 l 713 -299 l 713 -33 l 338 -33 l 338 1143 l 713 1143 l 713 1410 l 69 1410 z "},"]":{"ha":781,"x_min":0,"x_max":0,"o":"m 69 -299 l 711 -297 l 711 1410 l 69 1410 l 69 1144 l 446 1144 l 446 -31 l 69 -31 z "},"-":{"ha":932,"x_min":0,"x_max":0,"o":"m 69 422 l 863 422 l 863 694 l 69 694 z "},"_":{"ha":971,"x_min":0,"x_max":0,"o":"m 69 0 l 901 0 l 901 90 l 69 90 z "},"‚":{"ha":401,"x_min":0,"x_max":0,"o":"m 204 -174 l 318 72 l 322 81 b 332 131 329 96 332 114 b 201 263 332 203 274 263 b 69 131 128 263 69 203 b 201 0 69 58 128 0 l 213 0 l 144 -146 z "},"„":{"ha":701,"x_min":0,"x_max":0,"o":"m 203 -172 l 315 72 l 319 81 b 329 129 326 97 329 114 b 200 263 329 206 271 263 b 69 129 126 263 69 206 b 200 0 69 58 126 0 l 211 0 l 143 -144 z m 503 -172 l 618 72 l 622 81 b 632 129 629 97 632 114 b 501 263 632 206 572 263 b 369 129 429 263 369 206 b 501 0 369 58 429 0 l 513 0 l 446 -144 z "},"“":{"ha":892,"x_min":0,"x_max":0,"o":"m 243 675 b 419 849 340 675 419 751 b 243 1025 419 944 340 1025 b 228 1024 239 1025 233 1025 l 318 1217 l 239 1254 l 88 928 l 82 914 b 69 849 75 896 69 872 b 243 675 69 751 146 675 z m 646 675 b 822 849 742 675 822 751 b 646 1025 822 944 742 1025 b 632 1024 640 1025 638 1025 l 722 1217 l 643 1254 l 492 928 l 486 914 b 472 849 479 894 472 872 b 646 675 472 751 551 675 z "},"”":{"ha":894,"x_min":0,"x_max":0,"o":"m 247 529 l 400 857 l 406 868 b 419 938 417 890 419 911 b 243 1111 419 1033 342 1111 b 69 938 147 1111 69 1033 b 243 761 69 839 147 761 l 260 761 l 169 565 z m 653 529 l 806 857 l 811 868 b 825 938 819 890 825 911 b 649 1111 825 1033 744 1111 b 475 938 553 1111 475 1033 b 649 761 475 839 553 761 l 665 761 l 575 565 z "},"‘":{"ha":490,"x_min":0,"x_max":0,"o":"m 244 676 b 421 851 342 676 421 754 b 244 1028 421 947 342 1028 b 229 1025 240 1028 235 1028 l 319 1221 l 240 1257 l 88 931 l 82 918 b 69 851 75 897 69 875 b 244 676 69 754 147 676 z "},"’":{"ha":574,"x_min":0,"x_max":0,"o":"m 249 529 l 403 857 l 408 869 b 419 935 415 889 419 911 b 246 1111 419 1033 342 1111 b 69 935 147 1111 69 1033 b 246 761 69 839 147 761 l 260 761 l 169 567 z "},"«":{"ha":751,"x_min":0,"x_max":0,"o":"m 417 154 l 444 181 b 456 213 453 188 456 200 b 444 240 456 221 453 235 l 183 501 l 299 619 l 444 763 b 456 793 453 768 456 782 b 444 822 456 803 453 815 l 417 849 l 69 501 z m 644 154 l 669 181 b 682 213 678 188 682 200 b 669 240 682 221 678 235 l 410 501 l 669 763 b 682 793 678 768 682 782 b 669 822 682 803 678 815 l 644 849 l 297 501 z "},"»":{"ha":751,"x_min":0,"x_max":0,"o":"m 108 154 l 456 501 l 108 849 l 82 822 b 82 761 65 806 65 778 l 342 501 l 82 242 b 82 181 65 224 65 197 z m 336 154 l 682 501 l 336 849 l 310 822 b 310 761 293 806 293 778 l 451 617 l 568 501 l 310 242 b 310 181 293 224 293 197 z "},"‹":{"ha":596,"x_min":0,"x_max":0,"o":"m 417 154 l 513 250 b 513 311 531 267 531 294 l 322 501 l 513 692 b 513 753 531 708 531 736 l 417 849 l 153 583 l 69 501 z "},"›":{"ha":594,"x_min":0,"x_max":0,"o":"m 178 154 l 443 418 l 525 501 l 178 849 l 82 753 b 82 692 65 736 65 708 l 272 501 l 82 311 b 82 250 65 294 65 267 z "},"\"":{"ha":894,"x_min":0,"x_max":0,"o":"m 247 531 l 400 857 l 407 869 b 419 938 415 890 419 911 b 243 1111 419 1032 342 1111 b 69 938 149 1111 69 1032 b 243 761 69 839 149 761 l 260 761 l 169 565 z m 653 531 l 806 857 l 810 869 b 825 938 819 890 825 911 b 649 1111 825 1032 743 1111 b 475 938 553 1111 475 1032 b 649 761 475 839 553 761 l 665 761 l 575 565 z "},"'":{"ha":489,"x_min":0,"x_max":0,"o":"m 249 531 l 400 857 l 406 869 b 419 936 415 890 419 913 b 244 1111 419 1033 340 1111 b 69 936 147 1111 69 1033 b 244 761 69 840 147 761 b 260 763 250 761 254 761 l 169 568 z "}," ":{"ha":486,"x_min":0,"x_max":0,"o":""},"^":{"ha":985,"x_min":0,"x_max":0,"o":"m 186 571 b 260 571 207 551 240 551 l 493 803 l 725 571 b 799 571 744 551 779 551 l 915 688 l 593 1010 l 493 1111 l 69 688 z "}}}
